<svg width="467" height="53" viewBox="0 0 467 53" fill="none" xmlns="http://www.w3.org/2000/svg">
	<rect x="230" y="1" width="7" height="7" rx="3.5" fill="#D16564" stroke="white" />
	<rect y="14.5" width="467" height="14" rx="7" fill="url(#paint0_linear_85_876)" />
	<path d="M1.848 48.5V41.768H0L1.296 39.98H3.66V48.5H1.848ZM7.76259 48.632C6.95459 48.632 6.24659 48.384 5.63859 47.888C5.03059 47.384 4.71059 46.748 4.67859 45.98H6.55059C6.61459 46.236 6.75859 46.444 6.98259 46.604C7.20659 46.764 7.46659 46.844 7.76259 46.844C8.13859 46.844 8.43059 46.736 8.63859 46.52C8.84659 46.304 8.95059 46.02 8.95059 45.668C8.95059 45.332 8.83859 45.052 8.61459 44.828C8.39059 44.604 8.11059 44.492 7.77459 44.492C7.46259 44.492 7.19859 44.576 6.98259 44.744C6.76659 44.904 6.61059 45.116 6.51459 45.38L4.94259 44.888L5.92659 39.98H10.1146V41.732H7.31859L7.03059 43.088C7.31059 42.936 7.67459 42.86 8.12259 42.86C8.92259 42.86 9.56259 43.132 10.0426 43.676C10.5226 44.22 10.7626 44.928 10.7626 45.8C10.7626 46.68 10.4906 47.372 9.94659 47.876C9.41059 48.38 8.68259 48.632 7.76259 48.632Z" fill="white" />
	<path d="M55.848 48.5V41.768H54L55.296 39.98H57.66V48.5H55.848ZM61.8706 48.632C60.9906 48.632 60.2586 48.372 59.6746 47.852C59.0906 47.332 58.7986 46.672 58.7986 45.872C58.7986 44.968 59.1386 44.3 59.8186 43.868C59.3626 43.436 59.1346 42.872 59.1346 42.176C59.1346 41.496 59.3826 40.936 59.8786 40.496C60.3826 40.056 61.0466 39.836 61.8706 39.836C62.6946 39.836 63.3546 40.056 63.8506 40.496C64.3546 40.936 64.6066 41.496 64.6066 42.176C64.6066 42.864 64.3746 43.428 63.9106 43.868C64.5986 44.308 64.9426 44.976 64.9426 45.872C64.9426 46.672 64.6466 47.332 64.0546 47.852C63.4706 48.372 62.7426 48.632 61.8706 48.632ZM61.8706 46.964C62.2306 46.964 62.5186 46.852 62.7346 46.628C62.9586 46.396 63.0706 46.128 63.0706 45.824C63.0706 45.52 62.9586 45.256 62.7346 45.032C62.5186 44.8 62.2306 44.684 61.8706 44.684C61.5026 44.684 61.2106 44.8 60.9946 45.032C60.7786 45.256 60.6706 45.52 60.6706 45.824C60.6706 46.128 60.7786 46.396 60.9946 46.628C61.2106 46.852 61.5026 46.964 61.8706 46.964ZM61.1626 43.004C61.3546 43.172 61.5906 43.256 61.8706 43.256C62.1506 43.256 62.3826 43.172 62.5666 43.004C62.7586 42.828 62.8546 42.608 62.8546 42.344C62.8546 42.08 62.7586 41.864 62.5666 41.696C62.3826 41.52 62.1506 41.432 61.8706 41.432C61.5906 41.432 61.3546 41.52 61.1626 41.696C60.9786 41.864 60.8866 42.08 60.8866 42.344C60.8866 42.608 60.9786 42.828 61.1626 43.004ZM67.7962 48.224C67.5482 48.472 67.2482 48.596 66.8962 48.596C66.5442 48.596 66.2402 48.472 65.9842 48.224C65.7362 47.968 65.6122 47.664 65.6122 47.312C65.6122 46.96 65.7362 46.66 65.9842 46.412C66.2402 46.156 66.5442 46.028 66.8962 46.028C67.2482 46.028 67.5482 46.156 67.7962 46.412C68.0522 46.66 68.1802 46.96 68.1802 47.312C68.1802 47.664 68.0522 47.968 67.7962 48.224ZM71.8177 48.632C71.0097 48.632 70.3017 48.384 69.6937 47.888C69.0857 47.384 68.7657 46.748 68.7337 45.98H70.6057C70.6697 46.236 70.8137 46.444 71.0377 46.604C71.2617 46.764 71.5217 46.844 71.8177 46.844C72.1937 46.844 72.4857 46.736 72.6937 46.52C72.9017 46.304 73.0057 46.02 73.0057 45.668C73.0057 45.332 72.8937 45.052 72.6697 44.828C72.4457 44.604 72.1657 44.492 71.8297 44.492C71.5177 44.492 71.2537 44.576 71.0377 44.744C70.8217 44.904 70.6657 45.116 70.5697 45.38L68.9977 44.888L69.9817 39.98H74.1697V41.732H71.3737L71.0857 43.088C71.3657 42.936 71.7297 42.86 72.1777 42.86C72.9777 42.86 73.6178 43.132 74.0978 43.676C74.5777 44.22 74.8177 44.928 74.8177 45.8C74.8177 46.68 74.5457 47.372 74.0017 47.876C73.4657 48.38 72.7377 48.632 71.8177 48.632Z" fill="white" />
	<path d="M124.348 46.712V48.5H118.468V47.888C118.468 47.656 118.492 47.432 118.54 47.216C118.588 46.992 118.644 46.8 118.708 46.64C118.772 46.472 118.872 46.3 119.008 46.124C119.144 45.948 119.26 45.804 119.356 45.692C119.452 45.58 119.596 45.448 119.788 45.296C119.98 45.136 120.128 45.02 120.232 44.948C120.336 44.868 120.5 44.752 120.724 44.6C120.948 44.44 121.104 44.328 121.192 44.264C122.048 43.656 122.476 43.112 122.476 42.632C122.476 42.336 122.388 42.096 122.212 41.912C122.044 41.72 121.796 41.624 121.468 41.624C121.124 41.624 120.844 41.728 120.628 41.936C120.42 42.144 120.316 42.396 120.316 42.692H118.504C118.504 41.86 118.788 41.176 119.356 40.64C119.932 40.104 120.656 39.836 121.528 39.836C122.296 39.836 122.948 40.072 123.484 40.544C124.02 41.008 124.288 41.66 124.288 42.5C124.288 42.988 124.204 43.424 124.036 43.808C123.868 44.192 123.672 44.5 123.448 44.732C123.224 44.964 122.92 45.224 122.536 45.512C122.52 45.52 122.36 45.624 122.056 45.824C121.76 46.016 121.532 46.18 121.372 46.316C121.212 46.452 121.096 46.584 121.024 46.712H124.348ZM128.13 48.632C127.322 48.632 126.614 48.384 126.006 47.888C125.398 47.384 125.078 46.748 125.046 45.98H126.918C126.982 46.236 127.126 46.444 127.35 46.604C127.574 46.764 127.834 46.844 128.13 46.844C128.506 46.844 128.798 46.736 129.006 46.52C129.214 46.304 129.318 46.02 129.318 45.668C129.318 45.332 129.206 45.052 128.982 44.828C128.758 44.604 128.478 44.492 128.142 44.492C127.83 44.492 127.566 44.576 127.35 44.744C127.134 44.904 126.978 45.116 126.882 45.38L125.31 44.888L126.294 39.98H130.482V41.732H127.686L127.398 43.088C127.678 42.936 128.042 42.86 128.49 42.86C129.29 42.86 129.93 43.132 130.41 43.676C130.89 44.22 131.13 44.928 131.13 45.8C131.13 46.68 130.858 47.372 130.314 47.876C129.778 48.38 129.05 48.632 128.13 48.632Z" fill="white" />
	<path d="M177.588 48.632C176.732 48.632 175.992 48.376 175.368 47.864C174.744 47.344 174.416 46.62 174.384 45.692H176.184C176.224 46.076 176.368 46.364 176.616 46.556C176.864 46.748 177.188 46.844 177.588 46.844C177.94 46.844 178.22 46.76 178.428 46.592C178.644 46.416 178.756 46.188 178.764 45.908C178.772 45.604 178.66 45.356 178.428 45.164C178.196 44.972 177.888 44.876 177.504 44.876H176.76V43.424H177.408C178.136 43.424 178.508 43.116 178.524 42.5C178.532 42.244 178.444 42.036 178.26 41.876C178.076 41.708 177.84 41.624 177.552 41.624C177.2 41.624 176.912 41.728 176.688 41.936C176.464 42.144 176.356 42.396 176.364 42.692H174.552C174.552 41.828 174.852 41.136 175.452 40.616C176.06 40.096 176.76 39.836 177.552 39.836C178.424 39.836 179.108 40.08 179.604 40.568C180.1 41.048 180.348 41.64 180.348 42.344C180.348 42.728 180.26 43.084 180.084 43.412C179.916 43.732 179.708 43.988 179.46 44.18C179.78 44.34 180.048 44.58 180.264 44.9C180.48 45.22 180.588 45.608 180.588 46.064C180.588 46.816 180.308 47.432 179.748 47.912C179.196 48.392 178.476 48.632 177.588 48.632ZM184.642 48.632C183.69 48.632 182.914 48.312 182.314 47.672C181.714 47.032 181.414 46.216 181.414 45.224V43.244C181.414 42.252 181.714 41.436 182.314 40.796C182.914 40.156 183.69 39.836 184.642 39.836C185.586 39.836 186.358 40.156 186.958 40.796C187.558 41.436 187.858 42.252 187.858 43.244V45.224C187.858 46.216 187.558 47.032 186.958 47.672C186.358 48.312 185.586 48.632 184.642 48.632ZM184.642 46.844C185.066 46.844 185.406 46.7 185.662 46.412C185.918 46.124 186.046 45.728 186.046 45.224V43.244C186.046 42.74 185.918 42.344 185.662 42.056C185.406 41.768 185.066 41.624 184.642 41.624C184.21 41.624 183.866 41.768 183.61 42.056C183.354 42.344 183.226 42.74 183.226 43.244V45.224C183.226 45.728 183.354 46.124 183.61 46.412C183.866 46.7 184.21 46.844 184.642 46.844Z" fill="white" />
	<path d="M235.38 48.5V46.652H231.216V45.188L235.56 39.98H237.192V44.996H238.284V46.652H237.192V48.5H235.38ZM233.424 44.996H235.38V42.656L233.424 44.996ZM242.275 48.632C241.323 48.632 240.547 48.312 239.947 47.672C239.347 47.032 239.047 46.216 239.047 45.224V43.244C239.047 42.252 239.347 41.436 239.947 40.796C240.547 40.156 241.323 39.836 242.275 39.836C243.219 39.836 243.991 40.156 244.591 40.796C245.191 41.436 245.491 42.252 245.491 43.244V45.224C245.491 46.216 245.191 47.032 244.591 47.672C243.991 48.312 243.219 48.632 242.275 48.632ZM242.275 46.844C242.699 46.844 243.039 46.7 243.295 46.412C243.551 46.124 243.679 45.728 243.679 45.224V43.244C243.679 42.74 243.551 42.344 243.295 42.056C243.039 41.768 242.699 41.624 242.275 41.624C241.843 41.624 241.499 41.768 241.243 42.056C240.987 42.344 240.859 42.74 240.859 43.244V45.224C240.859 45.728 240.987 46.124 241.243 46.412C241.499 46.7 241.843 46.844 242.275 46.844Z" fill="white" />
	<defs>
		<linearGradient id="paint0_linear_85_876" x1="3.09885e-06" y1="21.5" x2="467" y2="21.5001" gradientUnits="userSpaceOnUse">
			<stop stop-color="#B5D4F1" />
			<stop offset="0.377705" stop-color="#81E6DB" />
			<stop offset="0.704019" stop-color="#E8D284" />
			<stop offset="1" stop-color="#E2798E" />
		</linearGradient>
	</defs>
</svg>
