<svg width="68" height="54" viewBox="0 0 68 54" fill="none" xmlns="http://www.w3.org/2000/svg">
	<path d="M0 33.4677H13.8837C15.0343 33.4677 15.9671 32.535 15.9671 31.3844V20.9565C15.9671 19.8059 16.8998 18.8731 18.0504 18.8731H20.8762C22.0268 18.8731 22.9595 19.8059 22.9595 20.9565V49.9167C22.9595 51.0673 23.8922 52 25.0428 52H28.1418C29.2924 52 30.2252 51.0673 30.2252 49.9167V4.08333C30.2252 2.93274 31.1579 2 32.3085 2H35.9887C37.1393 2 38.0721 2.93274 38.0721 4.08333V49.9167C38.0721 51.0673 39.0048 52 40.1554 52H42.6731C43.8237 52 44.7565 51.0673 44.7565 49.9167V20.9565C44.7565 19.8059 45.6892 18.8731 46.8398 18.8731H49.3576C50.5082 18.8731 51.4409 19.8059 51.4409 20.9565V31.3844C51.4409 32.535 52.3736 33.4677 53.5242 33.4677H67.3611" stroke="#78AEFF" stroke-width="2.77778" />
	<path d="M0 33.4677H13.8837C15.0343 33.4677 15.9671 32.535 15.9671 31.3844V20.9565C15.9671 19.8059 16.8998 18.8731 18.0504 18.8731H20.8762C22.0268 18.8731 22.9595 19.8059 22.9595 20.9565V49.9167C22.9595 51.0673 23.8922 52 25.0428 52H28.1418C29.2924 52 30.2252 51.0673 30.2252 49.9167V4.08333C30.2252 2.93274 31.1579 2 32.3085 2H35.9887C37.1393 2 38.0721 2.93274 38.0721 4.08333V33.4677" stroke="#D0E4FF" stroke-width="2.77778" />
</svg>
