<svg width="49" height="40" viewBox="0 0 49 40" fill="none" xmlns="http://www.w3.org/2000/svg">
	<path d="M39.9569 10.7428H37.1558V7.94061H34.7532V10.7428H31.9526V13.1443H34.7532V15.9443H37.1558V13.1443H39.9569V10.7428Z" fill="white" />
	<path d="M36.0165 0C30.7832 0 26.3304 3.37199 24.6929 8.05369H23.33C21.6904 3.37089 17.2392 0 12.0064 0C5.38541 0 0 5.38596 0 12.0053C0 15.4635 1.47878 18.578 3.82868 20.771H3.81331L23.0413 40H24.9372L43.8484 21.0855C46.3998 18.8805 48.0224 15.6326 48.0224 12.0053C48.0229 5.3876 42.637 0 36.0165 0ZM36.0165 20.0102C31.6027 20.0102 28.0122 16.4192 28.0122 12.0059C28.0122 7.59315 31.6027 4.00269 36.0165 4.00269C40.4303 4.00269 44.0208 7.59315 44.0208 12.0059C44.0208 16.4192 40.4303 20.0102 36.0165 20.0102Z" fill="white" />
</svg>
