<svg width="62" height="50" viewBox="0 0 62 50" fill="none" xmlns="http://www.w3.org/2000/svg">
<rect x="0.5" y="15.2778" width="2.77778" height="34.7222" rx="1.38889" fill="#9EEFF0"/>
<rect x="0.5" y="21.5278" width="2.77778" height="28.4722" rx="1.38889" fill="white"/>
<rect x="10.2222" y="22.9167" width="2.77778" height="27.0833" rx="1.38889" fill="#9EEFF0"/>
<rect x="10.2222" y="38.1944" width="2.77778" height="11.8056" rx="1.38889" fill="white"/>
<rect x="19.9443" width="2.77778" height="50" rx="1.38889" fill="#9EEFF0"/>
<rect x="19.9443" y="13.8889" width="2.77778" height="36.1111" rx="1.38889" fill="white"/>
<rect x="29.667" y="9.72223" width="2.77778" height="40.2778" rx="1.38889" fill="#9EEFF0"/>
<rect x="29.667" y="23.6111" width="2.77778" height="26.3889" rx="1.38889" fill="white"/>
<rect x="39.3892" y="17.3611" width="2.77778" height="32.6389" rx="1.38889" fill="#9EEFF0"/>
<rect x="39.3892" y="38.1945" width="2.77778" height="11.8056" rx="1.38889" fill="white"/>
<rect x="49.1113" y="11.1111" width="2.77778" height="38.8889" rx="1.38889" fill="#9EEFF0"/>
<rect x="49.1113" y="42.3611" width="2.77778" height="7.63889" rx="1.38889" fill="white"/>
<rect x="58.8335" y="22.9167" width="2.77778" height="27.0833" rx="1.38889" fill="#9EEFF0"/>
<rect x="58.8335" y="29.8611" width="2.77778" height="20.1389" rx="1.38889" fill="white"/>
</svg>
